<?xml version="1.0" standalone="no"?>
<!DOCTYPE svg PUBLIC "-//W3C//DTD SVG 20010904//EN"
 "http://www.w3.org/TR/2001/REC-SVG-20010904/DTD/svg10.dtd">
<svg version="1.0" xmlns="http://www.w3.org/2000/svg"
 width="720.000000pt" height="720.000000pt" viewBox="0 0 720.000000 720.000000"
 preserveAspectRatio="xMidYMid meet">
<metadata>
Created by potrace 1.11, written by Peter Selinger 2001-2013
</metadata>
<g transform="translate(0.000000,720.000000) scale(0.100000,-0.100000)"
fill="#000000" stroke="none">
<path d="M2991 5190 c-729 -292 -1330 -535 -1335 -540 -8 -8 -2 -35 18 -91 15
-44 26 -82 24 -83 -1 -2 -49 -18 -105 -35 -98 -30 -103 -33 -103 -59 0 -15
126 -344 281 -732 154 -388 357 -898 451 -1135 417 -1047 405 -1020 427 -1018
10 1 48 20 82 42 l63 40 33 -50 c19 -27 41 -49 49 -49 15 0 182 103 974 601
195 122 423 265 505 317 83 51 166 104 185 117 19 12 107 67 195 122 335 208
842 528 896 564 72 48 82 74 77 186 -4 99 -32 181 -101 293 -69 113 -126 179
-347 405 -347 353 -481 552 -668 992 -67 157 -154 389 -203 541 -28 85 -37
102 -54 102 -11 -1 -616 -239 -1344 -530z m1389 280 c83 -241 162 -433 251
-619 125 -258 156 -308 340 -552 31 -41 146 -164 255 -274 259 -260 361 -395
414 -551 20 -57 25 -133 12 -167 -4 -10 -109 -81 -232 -159 -378 -237 -482
-302 -1055 -663 -115 -72 -356 -223 -535 -335 -179 -112 -453 -284 -609 -382
-156 -99 -285 -177 -287 -175 -3 2 -11 46 -19 98 -15 100 -68 269 -129 409
-50 114 -191 385 -282 541 -140 241 -333 704 -583 1399 -51 140 -117 324 -147
408 -30 85 -54 155 -52 156 2 2 237 96 523 210 513 205 803 321 1635 655 234
93 429 169 434 168 5 -2 34 -77 66 -167z m-2634 -1110 c7 -19 43 -118 79 -220
66 -186 187 -513 230 -625 13 -33 44 -112 68 -176 130 -337 248 -594 354 -774
225 -382 368 -716 389 -915 3 -25 7 -52 10 -60 2 -8 -11 2 -30 24 -26 30 -40
63 -66 160 -77 285 -115 369 -345 761 -150 256 -205 379 -432 970 -19 50 -39
101 -43 115 -5 14 -17 48 -28 75 -11 28 -47 124 -81 215 -34 91 -90 234 -123
319 -49 124 -58 155 -47 162 26 17 51 5 65 -31z m-120 -27 c24 -56 94 -238
194 -503 350 -927 407 -1059 591 -1375 203 -346 238 -422 298 -634 22 -75 41
-146 44 -158 4 -18 -4 -28 -41 -53 -25 -16 -48 -30 -51 -30 -4 0 -35 73 -70
163 -35 89 -74 187 -87 217 -13 30 -98 244 -189 475 -160 404 -494 1243 -675
1698 -85 212 -87 219 -66 227 33 13 35 12 52 -27z"/>
<path d="M4220 5246 c-144 -60 -637 -263 -730 -301 -58 -23 -184 -75 -280
-115 -96 -40 -227 -94 -290 -119 -109 -45 -115 -49 -118 -78 -2 -18 2 -32 10
-35 7 -3 81 23 163 57 83 34 290 119 460 189 171 70 369 151 440 181 72 30
200 83 285 118 150 61 155 64 155 93 0 38 -22 40 -95 10z"/>
<path d="M4285 4854 c-71 -29 -161 -67 -200 -83 -38 -17 -131 -55 -205 -85
-121 -49 -561 -230 -825 -338 -114 -47 -125 -54 -125 -78 0 -52 28 -45 345 90
90 38 194 81 460 189 646 263 715 294 721 317 7 28 -2 44 -24 43 -9 0 -75 -25
-147 -55z"/>
<path d="M2342 4461 c-166 -70 -305 -130 -308 -134 -3 -3 33 -110 81 -239 48
-128 103 -276 122 -328 18 -52 40 -111 48 -130 40 -99 215 -578 215 -588 0 -7
6 -12 13 -12 6 0 136 61 287 136 151 75 290 142 307 149 31 13 32 16 22 42
-17 43 -137 367 -172 463 -159 437 -287 765 -298 767 -8 1 -150 -56 -317 -126z"/>
<path d="M4255 4414 c-165 -69 -394 -163 -510 -211 -506 -207 -641 -265 -654
-277 -17 -17 -5 -56 17 -56 8 0 225 86 481 191 256 106 574 236 706 290 306
126 310 128 310 159 0 20 -5 25 -25 27 -14 1 -160 -55 -325 -123z"/>
<path d="M4765 4180 c-38 -15 -230 -94 -425 -175 -359 -149 -882 -366 -1042
-432 -90 -37 -107 -56 -83 -90 12 -16 16 -15 76 10 132 55 728 302 1274 527
149 62 276 117 283 122 6 6 12 18 12 28 0 36 -22 39 -95 10z"/>
<path d="M5015 3865 c-16 -8 -235 -103 -485 -211 -250 -107 -552 -237 -670
-289 -118 -51 -395 -170 -615 -265 -220 -95 -413 -178 -430 -186 -16 -7 -66
-29 -110 -47 -74 -31 -80 -36 -80 -63 0 -19 6 -30 17 -32 15 -3 179 66 783
328 213 92 549 237 840 362 116 50 300 130 410 178 110 47 246 106 303 131
100 43 103 45 100 74 -3 35 -20 40 -63 20z"/>
<path d="M5210 3585 c-85 -39 -694 -309 -1281 -568 -118 -52 -313 -138 -434
-192 -121 -53 -321 -142 -445 -196 -300 -132 -294 -129 -298 -162 -2 -16 2
-29 10 -32 8 -3 178 67 379 156 200 89 418 185 484 214 171 75 566 249 655
289 41 19 215 96 385 171 171 75 390 172 488 216 98 43 182 79 187 79 12 0 22
34 14 54 -9 25 -40 19 -144 -29z"/>
<path d="M3760 2516 c-151 -67 -395 -175 -542 -241 -148 -65 -273 -124 -279
-131 -6 -7 -8 -23 -4 -35 6 -17 13 -20 34 -16 21 5 554 237 1021 447 78 35 85
40 85 66 0 22 -5 30 -20 31 -11 1 -144 -53 -295 -121z"/>
</g>
</svg>
