<svg fill="#FFFFFF" xmlns="http://www.w3.org/2000/svg" xmlns:xlink="http://www.w3.org/1999/xlink" version="1.1" x="0px" y="0px" viewBox="0 0 512 512" enable-background="new 0 0 512 512" xml:space="preserve"><g><path d="M442.5,82.1h-91.4v-66c0-7.8-6.3-14.1-14.1-14.1H56.2C26.3,2,2,26.3,2,56.2v386.3C2,479.7,32.3,510,69.5,510l373,0   c37.2,0,67.5-30.3,67.5-67.5V149.6C510,112.4,479.7,82.1,442.5,82.1z M56.2,30.2h266.7v51.9H56.2c-14.3,0-26-11.6-26-25.9   S41.9,30.2,56.2,30.2z M481.8,442.5c0,21.7-17.6,39.3-39.3,39.3l-373,0c-21.7,0-39.3-17.6-39.3-39.3V103.7c7.7,4.2,16.6,6.6,26,6.6   h386.3c21.7,0,39.3,17.6,39.3,39.3V442.5z"></path><path d="M442.6,135.5l-106.6,0c0,0,0,0,0,0c-7.2,0-14.1,6.2-14.1,14.1v91.7c0,7.8,6.3,14.1,14.1,14.1h106.6   c7.8,0,14.1-6.3,14.1-14.1l0-91.6C456.7,141.8,450.4,135.5,442.6,135.5z M428.4,227.2h-78.4v-63.4l78.4,0L428.4,227.2z"></path><path d="M442.6,294.1h-373c-7.8,0-14.1,6.3-14.1,14.1s6.3,14.1,14.1,14.1h373c7.8,0,14.1-6.3,14.1-14.1S450.4,294.1,442.6,294.1z"></path><path d="M69.6,255.4h186.5c7.8,0,14.1-6.3,14.1-14.1c0-7.8-6.3-14.1-14.1-14.1H69.6c-7.8,0-14.1,6.3-14.1,14.1   C55.5,249.1,61.8,255.4,69.6,255.4z"></path><path d="M442.6,361h-373c-7.8,0-14.1,6.3-14.1,14.1c0,7.8,6.3,14.1,14.1,14.1h373c7.8,0,14.1-6.3,14.1-14.1   C456.7,367.3,450.4,361,442.6,361z"></path><path d="M442.6,427.9h-373c-7.8,0-14.1,6.3-14.1,14.1c0,7.8,6.3,14.1,14.1,14.1h373c7.8,0,14.1-6.3,14.1-14.1   C456.7,434.2,450.4,427.9,442.6,427.9z"></path><polygon points="70,161 96.2,195.4 108.5,195.4 108.5,140.5 96.2,140.5 96.2,175.8 69.2,140.5 57.8,140.5 57.8,195.4 70,195.4  "></polygon><polygon points="162.5,184.6 134.3,184.6 134.3,173.2 158.9,173.2 158.9,162.7 134.3,162.7 134.3,151.4 161.6,151.4 161.6,140.5    122,140.5 122,195.4 162.5,195.4  "></polygon><polygon points="194.7,195.4 206.7,157.2 218.7,195.4 227.8,195.4 247,140.5 233.7,140.5 222.8,172.1 213.1,140.5 200.3,140.5    190.5,172.1 179.7,140.5 166.4,140.5 185.6,195.4  "></polygon><path d="M272.9,185.2c-5,0-10.5-2.6-16.4-7.8l-7.3,9c7,6.4,14.8,9.7,23.5,9.7c11.9,0,20.1-6.9,20.1-16.6c0.4-9.5-6.1-14.5-16.5-17   c-7.5-2-11.9-3.3-12.1-7.2c0.4-3.1,2.1-5.3,6.6-5.3c5.1,0,10,1.8,14.8,5.4l6.2-9c-5.6-4.3-12.2-7.1-20.6-7.2   c-12.2,0.7-19.3,5.7-19.7,16.3c0,10,5.9,14.6,18.5,17.4c5.4,1.3,10.5,2.8,10.1,6.9C280.3,183.3,276.3,185.4,272.9,185.2z"></path></g></svg>